<svg width="160" height="45" viewBox="0 0 160 45" fill="none" xmlns="http://www.w3.org/2000/svg">
<path d="M24.9516 3.5H12.0684C10.9431 3.49987 9.82887 3.7214 8.78925 4.15196C7.74962 4.58251 6.805 5.21365 6.00932 6.00932C5.21365 6.805 4.58251 7.74962 4.15196 8.78925C3.7214 9.82887 3.49987 10.9431 3.5 12.0684V32.9316C3.49987 34.0569 3.7214 35.1711 4.15196 36.2108C4.58251 37.2504 5.21365 38.195 6.00932 38.9907C6.805 39.7864 7.74962 40.4175 8.78925 40.848C9.82887 41.2786 10.9431 41.5001 12.0684 41.5H32.9316C34.0569 41.5001 35.1711 41.2786 36.2108 40.848C37.2504 40.4175 38.195 39.7864 38.9907 38.9907C39.7864 38.195 40.4175 37.2504 40.848 36.2108C41.2786 35.1711 41.5001 34.0569 41.5 32.9316V20.0484" stroke="#2F80ED" stroke-width="6" stroke-miterlimit="10"/>
<path d="M33.0531 10.2014C33.4941 9.74655 34.081 9.49508 34.6898 9.50007C35.2987 9.50506 35.882 9.76612 36.3166 10.2282C36.7512 10.6902 37.0031 11.3171 37.0192 11.9765C37.0353 12.6359 36.8143 13.2764 36.4028 13.7626L23.9118 30.687C23.697 30.9376 23.4378 31.1388 23.1496 31.2784C22.8615 31.418 22.5502 31.4932 22.2346 31.4996C21.919 31.5059 21.6054 31.4432 21.3127 31.3152C21.0199 31.1873 20.754 30.9967 20.5308 30.7548L12.2473 21.7805C12.0166 21.5476 11.8316 21.2668 11.7033 20.9548C11.5749 20.6427 11.5059 20.3059 11.5004 19.9644C11.4948 19.6228 11.5528 19.2835 11.6709 18.9668C11.789 18.6501 11.9647 18.3623 12.1877 18.1208C12.4107 17.8792 12.6762 17.6888 12.9686 17.5609C13.2609 17.4329 13.5741 17.3701 13.8894 17.3761C14.2046 17.3822 14.5155 17.4569 14.8035 17.596C15.0915 17.735 15.3508 17.9354 15.5657 18.1854L22.1211 25.2841L32.9936 10.276C33.0132 10.2499 33.0341 10.225 33.0562 10.2014H33.0531Z" fill="black"/>
<path d="M55.6364 14.7841V10.7273H74.75V14.7841H67.625V34H62.7614V14.7841H55.6364ZM77.8068 34V16.5455H82.6477V34H77.8068ZM80.2386 14.2955C79.5189 14.2955 78.9015 14.0568 78.3864 13.5795C77.8788 13.0947 77.625 12.5152 77.625 11.8409C77.625 11.1742 77.8788 10.6023 78.3864 10.125C78.9015 9.64015 79.5189 9.39773 80.2386 9.39773C80.9583 9.39773 81.572 9.64015 82.0795 10.125C82.5947 10.6023 82.8523 11.1742 82.8523 11.8409C82.8523 12.5152 82.5947 13.0947 82.0795 13.5795C81.572 14.0568 80.9583 14.2955 80.2386 14.2955ZM94.4119 34.3409C92.6241 34.3409 91.0862 33.9621 89.7983 33.2045C88.518 32.4394 87.5331 31.3788 86.8438 30.0227C86.1619 28.6667 85.821 27.1061 85.821 25.3409C85.821 23.553 86.1657 21.9848 86.8551 20.6364C87.5521 19.2803 88.5407 18.2235 89.821 17.4659C91.1013 16.7008 92.6241 16.3182 94.3892 16.3182C95.9119 16.3182 97.2453 16.5947 98.3892 17.1477C99.5331 17.7008 100.438 18.4773 101.105 19.4773C101.772 20.4773 102.139 21.6515 102.207 23H97.6392C97.5104 22.1288 97.1695 21.428 96.6165 20.8977C96.071 20.3598 95.3551 20.0909 94.4688 20.0909C93.7188 20.0909 93.0634 20.2955 92.5028 20.7045C91.9498 21.1061 91.518 21.6932 91.2074 22.4659C90.8968 23.2386 90.7415 24.1742 90.7415 25.2727C90.7415 26.3864 90.893 27.3333 91.196 28.1136C91.5066 28.8939 91.9422 29.4886 92.5028 29.8977C93.0634 30.3068 93.7188 30.5114 94.4688 30.5114C95.0218 30.5114 95.518 30.3977 95.9574 30.1705C96.4044 29.9432 96.7718 29.6136 97.0597 29.1818C97.3551 28.7424 97.5483 28.2159 97.6392 27.6023H102.207C102.132 28.9356 101.768 30.1098 101.116 31.125C100.473 32.1326 99.5824 32.9205 98.446 33.4886C97.3097 34.0568 95.965 34.3409 94.4119 34.3409ZM109.693 28.9773L109.705 23.1705H110.409L116 16.5455H121.557L114.045 25.3182H112.898L109.693 28.9773ZM105.307 34V10.7273H110.148V34H105.307ZM116.216 34L111.08 26.3977L114.307 22.9773L121.886 34H116.216ZM138.455 21.5227L134.023 21.7955C133.947 21.4167 133.784 21.0758 133.534 20.7727C133.284 20.4621 132.955 20.2159 132.545 20.0341C132.144 19.8447 131.663 19.75 131.102 19.75C130.352 19.75 129.72 19.9091 129.205 20.2273C128.689 20.5379 128.432 20.9545 128.432 21.4773C128.432 21.8939 128.598 22.2462 128.932 22.5341C129.265 22.822 129.837 23.053 130.648 23.2273L133.807 23.8636C135.504 24.2121 136.769 24.7727 137.602 25.5455C138.436 26.3182 138.852 27.3333 138.852 28.5909C138.852 29.7348 138.515 30.7386 137.841 31.6023C137.174 32.4659 136.258 33.1402 135.091 33.625C133.932 34.1023 132.595 34.3409 131.08 34.3409C128.769 34.3409 126.928 33.8598 125.557 32.8977C124.193 31.928 123.394 30.6098 123.159 28.9432L127.92 28.6932C128.064 29.3977 128.413 29.9356 128.966 30.3068C129.519 30.6705 130.227 30.8523 131.091 30.8523C131.939 30.8523 132.621 30.6894 133.136 30.3636C133.659 30.0303 133.924 29.6023 133.932 29.0795C133.924 28.6402 133.739 28.2803 133.375 28C133.011 27.7121 132.451 27.4924 131.693 27.3409L128.67 26.7386C126.966 26.3977 125.697 25.8068 124.864 24.9659C124.038 24.125 123.625 23.053 123.625 21.75C123.625 20.6288 123.928 19.6629 124.534 18.8523C125.148 18.0417 126.008 17.4167 127.114 16.9773C128.227 16.5379 129.53 16.3182 131.023 16.3182C133.227 16.3182 134.962 16.7841 136.227 17.7159C137.5 18.6477 138.242 19.9167 138.455 21.5227ZM144.889 40.5455C144.276 40.5455 143.7 40.4962 143.162 40.3977C142.632 40.3068 142.192 40.1894 141.844 40.0455L142.935 36.4318C143.503 36.6061 144.014 36.7008 144.469 36.7159C144.931 36.7311 145.329 36.625 145.662 36.3977C146.003 36.1705 146.279 35.7841 146.491 35.2386L146.776 34.5L140.514 16.5455H145.605L149.219 29.3636H149.401L153.048 16.5455H158.173L151.389 35.8864C151.063 36.8258 150.62 37.6439 150.06 38.3409C149.507 39.0455 148.806 39.5871 147.957 39.9659C147.109 40.3523 146.086 40.5455 144.889 40.5455Z" fill="black"/>
</svg>
